<?xml version="1.0" standalone="no"?>
<!DOCTYPE svg PUBLIC "-//W3C//DTD SVG 20010904//EN"
 "http://www.w3.org/TR/2001/REC-SVG-20010904/DTD/svg10.dtd">
<svg version="1.0" xmlns="http://www.w3.org/2000/svg"
 width="400.000000pt" height="164.000000pt" viewBox="0 0 400.000000 164.000000"
 preserveAspectRatio="xMidYMid meet">

<g transform="translate(0.000000,164.000000) scale(0.100000,-0.100000)"
fill="#000000" stroke="none">
<path d="M1917 563 c-4 -3 -7 -26 -7 -51 0 -38 -2 -43 -17 -37 -62 27 -110 10
-133 -44 -18 -44 -5 -95 31 -125 34 -29 53 -32 89 -13 18 9 30 10 42 3 9 -6
18 -8 20 -6 7 11 -4 280 -11 280 -4 0 -11 -3 -14 -7z m-25 -120 c18 -16 25
-77 10 -99 -27 -42 -90 -34 -111 13 -31 67 48 134 101 86z"/>
<path d="M1997 564 c-16 -16 -7 -44 14 -44 15 0 20 5 17 22 -3 22 -19 33 -31
22z"/>
<path d="M1450 425 c0 -113 2 -135 15 -135 12 0 15 17 15 91 0 54 4 88 9 84 6
-3 25 -32 43 -65 18 -33 38 -60 45 -60 7 0 31 33 55 72 l43 73 3 -98 c2 -77 6
-97 17 -97 12 0 15 23 15 135 0 165 -9 171 -76 55 -26 -45 -51 -83 -55 -85 -4
-3 -29 33 -55 80 -26 47 -54 85 -61 85 -10 0 -13 -30 -13 -135z"/>
<path d="M1997 483 c-4 -3 -7 -48 -7 -100 0 -86 1 -93 20 -93 19 0 20 7 20
100 0 77 -3 100 -13 100 -8 0 -17 -3 -20 -7z"/>
<path d="M2098 479 c-10 -5 -18 -17 -18 -25 0 -13 4 -13 29 1 36 18 76 7 84
-24 5 -19 1 -21 -35 -21 -40 0 -77 -14 -90 -34 -28 -42 24 -103 77 -90 16 4
45 6 64 5 30 -1 33 1 27 21 -3 13 -6 47 -6 76 0 43 -5 58 -25 77 -26 27 -75
33 -107 14z m97 -110 c14 -14 -7 -42 -39 -54 -54 -19 -86 37 -36 62 25 13 56
9 75 -8z"/>
<path d="M2280 390 c0 -82 3 -100 15 -100 12 0 15 13 15 61 0 72 10 93 50 107
34 12 30 18 75 -87 29 -69 33 -85 23 -106 -6 -14 -17 -25 -25 -25 -7 0 -13 -9
-13 -20 0 -21 16 -26 38 -12 11 7 122 260 122 278 0 3 -7 4 -16 2 -10 -2 -27
-30 -43 -71 -14 -38 -30 -69 -36 -69 -5 0 -23 32 -39 71 -27 67 -30 71 -60 71
-17 0 -42 -7 -54 -16 -20 -14 -22 -14 -22 0 0 9 -7 16 -15 16 -12 0 -15 -18
-15 -100z"/>
</g>
</svg>
